<svg xmlns="http://www.w3.org/2000/svg" width="30.989" height="74.82" viewBox="0 0 30.989 74.82">
  <g id="blackQueen" transform="translate(-857.498 -875.18)">
    <ellipse id="Ellipse_2" data-name="Ellipse 2" cx="5.094" cy="5.094" rx="5.094" ry="5.094" transform="translate(867.846 875.18)"/>
    <path id="Path_11" data-name="Path 11" d="M218.433,251.11s3.179-.438,3.218-1.344,1.461,1.256,3.067,1.344a7.117,7.117,0,0,0,3.593-1.344s4.771.906,2.386,4.109-2.814,2.6-2.814,2.6-2.171,2.824-2.512,4.547-1.12,7.488-1.12,7.488-1.266.993,1.12,1.12,2.512,1.685,2.512,1.685,1.392,1.743-1.685,2.386a30.822,30.822,0,0,1-8.03,0" transform="translate(654.507 635.678)"/>
    <path id="Path_12" data-name="Path 12" d="M232.183,251.11s-3.43-.438-3.469-1.344-1.461,1.256-3.067,1.344a7.117,7.117,0,0,1-3.593-1.344s-4.771.906-2.386,4.109,2.814,2.6,2.814,2.6,2.171,2.824,2.512,4.547,1.12,7.488,1.12,7.488,1.266.993-1.12,1.12-2.512,1.685-2.512,1.685-1.392,1.743,1.685,2.386a28.654,28.654,0,0,0,7.765,0" transform="translate(640.887 635.678)"/>
    <path id="Path_13" data-name="Path 13" d="M205.434,328.413h9.173s1.986,16.924,5.881,21.423" transform="translate(663.506 581.921)"/>
    <path id="Path_14" data-name="Path 14" d="M220.488,328.413h-9.173s-1.986,16.924-5.881,21.423" transform="translate(657.138 581.921)"/>
    <line id="Line_1" data-name="Line 1" x1="21.332" transform="translate(862.593 931.693)" fill="none"/>
    <rect id="Rectangle_75" data-name="Rectangle 75" width="24.197" height="2.229" rx="1.114" transform="translate(860.842 932.807)"/>
    <path id="Path_15" data-name="Path 15" d="M174.523,407.747s-6.612,12.158-.286,12.134,26.021,0,26.021,0" transform="translate(686 527.845)"/>
    <path id="Path_16" data-name="Path 16" d="M197.233,407.747s6.612,12.158.286,12.134-26.02,0-26.02,0" transform="translate(688.229 527.845)"/>
    <line id="Line_2" data-name="Line 2" x2="25.152" transform="translate(860.364 935.514)" fill="none"/>
    <rect id="Rectangle_76" data-name="Rectangle 76" width="27.699" height="0.955" transform="translate(859.25 949.045)"/>
  </g>
</svg>
