<svg xmlns="http://www.w3.org/2000/svg" width="30.989" height="81" viewBox="0 0 30.989 81">
  <g id="blackKing" transform="translate(-950.498 -187)">
    <g id="Queen" transform="translate(93 -682)">
      <ellipse id="Ellipse_2" data-name="Ellipse 2" cx="5.094" cy="5.094" rx="5.094" ry="5.094" transform="translate(867.846 875.18)"/>
      <path id="Path_12" data-name="Path 12" d="M231.932,250.24s-3.179.432-3.218-.474-1.631-.088-3.237,0-3.423,0-3.423,0-4.771.906-2.386,4.109,2.814,2.6,2.814,2.6,2.171,2.824,2.512,4.547,1.12,7.488,1.12,7.488,1.266.993-1.12,1.12-2.512,1.685-2.512,1.685-1.392,1.743,1.685,2.386a28.654,28.654,0,0,0,7.765,0" transform="translate(640.887 635.678)"/>
      <path id="Path_13" data-name="Path 13" d="M205.434,328.413h6.109s1.323,18.635,3.917,23.588" transform="translate(665.506 581.921)"/>
      <path id="Path_14" data-name="Path 14" d="M217.074,349.835l-5.759-21.423s-1.986,16.924-5.881,21.423" transform="translate(659.138 581.921)"/>
      <line id="Line_1" data-name="Line 1" x1="21.332" transform="translate(862.593 931.693)" fill="none"/>
      <rect id="Rectangle_75" data-name="Rectangle 75" width="24.197" height="2.229" rx="1.114" transform="translate(860.842 932.807)"/>
      <path id="Path_15" data-name="Path 15" d="M174.523,407.747s-6.612,12.158-.286,12.134,26.021,0,26.021,0" transform="translate(686 527.845)"/>
      <path id="Path_16" data-name="Path 16" d="M197.233,407.747s6.612,12.158.286,12.134-26.02,0-26.02,0" transform="translate(688.229 527.845)"/>
      <line id="Line_2" data-name="Line 2" x2="25.152" transform="translate(860.364 935.514)" fill="none"/>
      <rect id="Rectangle_76" data-name="Rectangle 76" width="27.699" height="0.955" transform="translate(859.25 949.045)"/>
      <path id="Path_17" data-name="Path 17" d="M219,250.24s3.179.432,3.218-.474,1.631-.088,3.237,0,3.423,0,3.423,0,4.771.906,2.386,4.109-2.814,2.6-2.814,2.6-2.171,2.824-2.512,4.547-1.12,7.488-1.12,7.488-1.266.993,1.12,1.12,2.512,1.685,2.512,1.685,1.392,1.743-1.685,2.386a28.654,28.654,0,0,1-7.765,0" transform="translate(653.5 635.678)"/>
    </g>
    <g id="Rectangle_77" data-name="Rectangle 77" transform="translate(965.5 187)" fill="#fff" stroke="#000" stroke-width="1">
      <rect width="1" height="11" stroke="none"/>
      <rect x="0.5" y="0.5" height="10" fill="none"/>
    </g>
    <g id="Rectangle_78" data-name="Rectangle 78" transform="translate(962.5 190)" fill="#fff" stroke="#000" stroke-width="1">
      <rect width="7" height="1" stroke="none"/>
      <rect x="0.5" y="0.5" width="6" fill="none"/>
    </g>
    <g id="Rectangle_79" data-name="Rectangle 79" transform="translate(965.5 206)" fill="#fff" stroke="#fff" stroke-width="1">
      <rect width="1" height="11" stroke="none"/>
      <rect x="0.5" y="0.5" height="10" fill="none"/>
    </g>
    <g id="Rectangle_80" data-name="Rectangle 80" transform="translate(962.5 209)" fill="#fff" stroke="#fff" stroke-width="1">
      <rect width="7" height="1" stroke="none"/>
      <rect x="0.5" y="0.5" width="6" fill="none"/>
    </g>
  </g>
</svg>
