<svg id="whiteBishop" xmlns="http://www.w3.org/2000/svg" width="32.2" height="86.458" viewBox="0 0 32.2 86.458">
  <rect id="Rectangle_1" data-name="Rectangle 1" width="32.2" height="1.472" transform="translate(0 84.987)"/>
  <g id="Path_10" data-name="Path 10" transform="translate(6.257 0)" fill="#fff" stroke-linecap="round">
    <path d="M 10.40295886993408 19.80592346191406 C 5.218148708343506 19.80592346191406 0.9999988675117493 15.58777332305908 0.9999988675117493 10.40296363830566 C 0.9999988675117493 5.218153476715088 5.218148708343506 1.000003695487976 10.40295886993408 1.000003695487976 C 15.5877685546875 1.000003695487976 19.8059196472168 5.218153476715088 19.8059196472168 10.40296363830566 C 19.8059196472168 15.58777332305908 15.5877685546875 19.80592346191406 10.40295886993408 19.80592346191406 Z" stroke="none"/>
    <path d="M 10.40295886993408 2.000003814697266 C 5.769548416137695 2.000003814697266 1.999998092651367 5.769553184509277 1.999998092651367 10.40296363830566 C 1.999998092651367 15.03637313842773 5.769548416137695 18.80592346191406 10.40295886993408 18.80592346191406 C 15.03636932373047 18.80592346191406 18.8059196472168 15.03637313842773 18.8059196472168 10.40296363830566 C 18.8059196472168 5.769553184509277 15.03636932373047 2.000003814697266 10.40295886993408 2.000003814697266 M 10.40295886993408 3.814697265625e-06 C 16.14834976196289 3.814697265625e-06 20.8059196472168 4.657564163208008 20.8059196472168 10.40296363830566 C 20.8059196472168 16.14836311340332 16.14834976196289 20.80592346191406 10.40295886993408 20.80592346191406 C 4.657558441162109 20.80592346191406 -1.9073486328125e-06 16.14836311340332 -1.9073486328125e-06 10.40296363830566 C -1.9073486328125e-06 4.657564163208008 4.657558441162109 3.814697265625e-06 10.40295886993408 3.814697265625e-06 Z" stroke="none"/>
  </g>
  <path id="Path_8" data-name="Path 8" d="M269.664,204.891s9.184-9.284,4.338-8.138S269.664,204.891,269.664,204.891Z" transform="translate(-253.017 -194.488)"/>
  <path id="Path_9" data-name="Path 9" d="M219.552,443.548s20.984,6.513,12.125,23.607-12.125,41.6-12.125,41.6-11.158-43.472-4.944-56.673S219.552,443.548,219.552,443.548Z" transform="translate(-203.452 -422.948)" fill="#fff" stroke="#000" stroke-width="2"/>
</svg>
