<svg xmlns="http://www.w3.org/2000/svg" xmlns:xlink="http://www.w3.org/1999/xlink" width="32.987" height="81" viewBox="0 0 32.987 81">
  <defs>
    <clipPath id="clip">
      <use xlink:href="#fill"/>
    </clipPath>
  </defs>
  <g id="whiteKing" transform="translate(-949.499 -187)">
    <g id="Queen" transform="translate(93 -682)">
      <g id="Ellipse_2" data-name="Ellipse 2" transform="translate(867.846 875.18)" fill="#fff" stroke="#000" stroke-width="2">
        <ellipse cx="5.094" cy="5.094" rx="5.094" ry="5.094" stroke="none"/>
        <ellipse cx="5.094" cy="5.094" rx="4.094" ry="4.094" fill="none"/>
      </g>
      <path id="Path_12" data-name="Path 12" d="M231.932,250.24s-3.179.432-3.218-.474-1.631-.088-3.237,0-3.423,0-3.423,0-4.771.906-2.386,4.109,2.814,2.6,2.814,2.6,2.171,2.824,2.512,4.547,1.12,7.488,1.12,7.488,1.266.993-1.12,1.12-2.512,1.685-2.512,1.685-1.392,1.743,1.685,2.386a28.654,28.654,0,0,0,7.765,0" transform="translate(640.887 635.678)" fill="#fff" stroke="#000" stroke-width="2"/>
      <path id="Path_13" data-name="Path 13" d="M205.434,328.413h6.109s1.323,18.635,3.917,23.588" transform="translate(665.506 581.921)" fill="#fff" stroke="#000" stroke-linecap="round" stroke-width="2"/>
      <path id="Path_14" data-name="Path 14" d="M217.074,349.835l-5.759-21.423s-1.986,16.924-5.881,21.423" transform="translate(659.138 581.921)" fill="#fff" stroke="#000" stroke-linecap="round" stroke-width="2"/>
      <line id="Line_1" data-name="Line 1" x1="21.332" transform="translate(862.593 931.693)" fill="none" stroke="#000" stroke-width="2"/>
      <g id="Rectangle_75" data-name="Rectangle 75" transform="translate(860.842 932.807)" fill="#fff" stroke="#000" stroke-width="2">
        <rect width="24.197" height="2.229" rx="1.114" stroke="none"/>
        <rect x="1" y="1" width="22.197" height="0.229" rx="0.114" fill="none"/>
      </g>
      <path id="Path_15" data-name="Path 15" d="M174.523,407.747s-6.612,12.158-.286,12.134,26.021,0,26.021,0" transform="translate(686 527.845)" fill="#fff" stroke="#000" stroke-width="2"/>
      <path id="Path_16" data-name="Path 16" d="M197.233,407.747s6.612,12.158.286,12.134-26.02,0-26.02,0" transform="translate(688.229 527.845)" fill="#fff" stroke="#000" stroke-width="2"/>
      <line id="Line_2" data-name="Line 2" x2="25.152" transform="translate(860.364 935.514)" fill="none" stroke="#000" stroke-linecap="round" stroke-width="2"/>
      <g id="Rectangle_76" data-name="Rectangle 76" transform="translate(859.25 949.045)" fill="#fff" stroke="#000" stroke-width="2">
        <rect id="fill" width="27.699" height="0.955" stroke="none"/>
        <path d="M0,-0.044847190380096436h27.699430465698242M26.699430465698242,0v0.9551528096199036M27.699430465698242,1h-27.699430465698242M1,0.9551528096199036v-0.9551528096199036" fill="none" clip-path="url(#clip)"/>
      </g>
      <path id="Path_17" data-name="Path 17" d="M219,250.24s3.179.432,3.218-.474,1.631-.088,3.237,0,3.423,0,3.423,0,4.771.906,2.386,4.109-2.814,2.6-2.814,2.6-2.171,2.824-2.512,4.547-1.12,7.488-1.12,7.488-1.266.993,1.12,1.12,2.512,1.685,2.512,1.685,1.392,1.743-1.685,2.386a28.654,28.654,0,0,1-7.765,0" transform="translate(653.5 635.678)" fill="#fff" stroke="#000" stroke-width="2"/>
    </g>
    <g id="Rectangle_77" data-name="Rectangle 77" transform="translate(965.5 187)" fill="#fff" stroke="#000" stroke-width="2">
      <rect width="2" height="11" stroke="none"/>
      <rect x="1" y="1" height="9" fill="none"/>
    </g>
    <g id="Rectangle_78" data-name="Rectangle 78" transform="translate(962.5 189)" fill="#fff" stroke="#000" stroke-width="2">
      <rect width="8" height="2" stroke="none"/>
      <rect x="1" y="1" width="6" fill="none"/>
    </g>
    <g id="Rectangle_79" data-name="Rectangle 79" transform="translate(965.5 206)" fill="#fff" stroke="#000" stroke-width="2">
      <rect width="2" height="11" stroke="none"/>
      <rect x="1" y="1" height="9" fill="none"/>
    </g>
    <g id="Rectangle_80" data-name="Rectangle 80" transform="translate(962.5 209)" fill="#fff" stroke="#000" stroke-width="2">
      <rect width="8" height="2" stroke="none"/>
      <rect x="1" y="1" width="6" fill="none"/>
    </g>
  </g>
</svg>
