<svg xmlns="http://www.w3.org/2000/svg" width="58.885" height="75.05" viewBox="0 0 58.885 75.05">
  <g id="whiteRook" transform="translate(-544 -873)">
    <g id="Rectangle_73" data-name="Rectangle 73" transform="translate(555.672 875)" fill="#fff" stroke="#000" stroke-linecap="round" stroke-width="2">
      <rect width="6.63" height="12.525" rx="3.315" stroke="none"/>
      <rect x="-1" y="-1" width="8.63" height="14.525" rx="4.315" fill="none"/>
    </g>
    <g id="Rectangle_71" data-name="Rectangle 71" transform="translate(586.169 875)" fill="#fff" stroke="#000" stroke-linecap="round" stroke-width="2">
      <rect width="6.63" height="12.525" rx="3.315" stroke="none"/>
      <rect x="-1" y="-1" width="8.63" height="14.525" rx="4.315" fill="none"/>
    </g>
    <g id="Rectangle_67" data-name="Rectangle 67" transform="translate(564.888 896.11)" fill="#fff" stroke="#000" stroke-linecap="round" stroke-width="2">
      <rect width="17.943" height="43.802" stroke="none"/>
      <rect x="-1" y="-1" width="19.943" height="45.802" fill="none"/>
    </g>
    <g id="Rectangle_72" data-name="Rectangle 72" transform="translate(569.926 875)" fill="#fff" stroke="#000" stroke-linecap="round" stroke-width="2">
      <rect width="6.63" height="12.525" rx="3.315" stroke="none"/>
      <rect x="-1" y="-1" width="8.63" height="14.525" rx="4.315" fill="none"/>
    </g>
    <g id="Rectangle_66" data-name="Rectangle 66" transform="translate(551.694 881.031)" fill="#fff" stroke="#000" stroke-linecap="round" stroke-width="2">
      <rect width="44.088" height="15.309" rx="1" stroke="none"/>
      <rect x="-1" y="-1" width="46.088" height="17.309" rx="2" fill="none"/>
    </g>
    <g id="Rectangle_74" data-name="Rectangle 74" transform="translate(564.888 896.11)" fill="#fff" stroke="#000" stroke-linecap="round" stroke-width="2">
      <rect width="17.943" height="43.802" stroke="none"/>
      <rect x="-1" y="-1" width="19.943" height="45.802" fill="none"/>
    </g>
    <g id="Rectangle_68" data-name="Rectangle 68" transform="translate(546 939.468)" fill="#fff" stroke="#000" stroke-linecap="round" stroke-width="2">
      <rect width="54.885" height="6.582" rx="2" stroke="none"/>
      <rect x="-1" y="-1" width="56.885" height="8.582" rx="3" fill="none"/>
    </g>
  </g>
</svg>
