<svg xmlns="http://www.w3.org/2000/svg" width="55.001" height="78.292" viewBox="0 0 55.001 78.292">
  <g id="whiteKnight" transform="translate(-160.04 -373.945)">
    <path id="Path_5" data-name="Path 5" d="M170.721,225.409s.8,6.308,0,7.255-5.017,1.389-5.017,1.389l.8,3.334-7.19,2.827a10.751,10.751,0,0,1-1.961,3.137c-1.095,1.013-12.566,11.03-12.566,11.03l-.735,5.817s.8,3.856,4.151,4.363,2.843.343,5.376.784,4.641-2.974,4.641-2.974.588-2.68,4.216-1.373,10.393,1.879,11.112,1.373-17.076,15.932-17.142,25.067,2.909,12.119,2.909,12.119H187.1a81.822,81.822,0,0,0,4.029-12.119c1.961-7.566,5.376-16.341,5.376-16.341s2.827-20.116-4.657-27.747a50.415,50.415,0,0,0-14.821-10.687Z" transform="translate(17 151.678)" fill="#fff" stroke="#000" stroke-linecap="round" stroke-width="2"/>
    <g id="Path_7" data-name="Path 7" transform="translate(170.153 451.15)" fill="#fff" stroke-linecap="round">
      <path d="M0,0H40.5V1H0Z" stroke="none"/>
      <path d="M -3.814697265625e-06 0 L 40.50177764892578 0 L 40.50177764892578 1 L -3.814697265625e-06 1 L -3.814697265625e-06 0 Z" stroke="none"/>
    </g>
    <path id="Path_6" data-name="Path 6" d="M221.347,257.98s3.016-2.677,4.618-.569S221.347,257.98,221.347,257.98Z" transform="translate(-40.916 139.515)" fill="#fff" stroke="#000" stroke-width="2"/>
  </g>
</svg>
